#!OML:ASF F:\VICON\USERDATA\INSTALL\rory3\rory3.ASF
:FULLY-SPECIFIED
:DEGREES
210
root -9.94831 18.2258 8.12684 180.679 -30.9145 174.794
lowerback 11.4329 -0.719642 -3.22321
upperback 1.06187 -1.35509 2.07612
thorax -5.1774 -0.622047 4.21956
lowerneck 3.32818 -13.9776 -13.4247
upperneck 31.2165 -34.4955 15.3171
head 15.9534 -17.1969 2.59262
rclavicle -6.1822e-014 -2.3059e-014
rhumerus -35.1582 -14.509 -78.5953
rradius 32.4475
rwrist 7.39783
rhand -15.5154 8.14593
rfingers 7.12502
rthumb 10.6677 -21.5633
lclavicle -6.1822e-014 -2.3059e-014
lhumerus -31.6561 11.2177 76.8519
lradius 34.3709
lwrist -0.994151
lhand -17.9385 25.4493
lfingers 7.12502
lthumb 8.32972 55.2651
rfemur -6.44895 -8.87064 29.74
rtibia 28.0039
rfoot -4.69879 -2.04349
rtoes 9.09293
lfemur -14.6934 -3.35503 -14.1778
ltibia 61.2294
lfoot 2.52778 -6.8752
ltoes -0.324736
211
root -9.9152 18.2319 8.19296 180.899 -31.766 174.451
lowerback 11.3188 -0.854248 -3.32161
upperback 1.00358 -1.54132 2.00743
thorax -5.15656 -0.70939 4.22848
lowerneck 3.40012 -13.958 -13.4959
upperneck 31.213 -34.3798 15.3127
head 15.9258 -17.1571 2.63768
rclavicle -4.30369e-014 -5.08889e-014
rhumerus -35.694 -14.7007 -78.4599
rradius 32.4394
rwrist 7.9837
rhand -15.0365 7.50111
rfingers 7.12502
rthumb 11.1295 -22.1837
lclavicle -4.30369e-014 -5.08889e-014
lhumerus -31.5986 11.0026 76.8883
lradius 34.7359
lwrist -0.581973
lhand -18.7064 26.5926
lfingers 7.12502
lthumb 7.58852 56.4364
rfemur -6.92624 -9.0861 29.4748
rtibia 28.163
rfoot -4.81814 -2.24745
rtoes 7.66598
lfemur -13.8922 -2.68521 -14.4633
ltibia 61.2516
lfoot 3.05927 -7.64183
ltoes -2.03199
212
root -9.88001 18.2402 8.25743 181.087 -32.5855 174.129
lowerback 11.2383 -0.965678 -3.41769
upperback 0.948414 -1.69744 1.95114
thorax -5.15361 -0.781796 4.24533
lowerneck 3.46425 -13.9084 -13.674
upperneck 31.2398 -34.35 15.4433
head 15.9972 -17.1567 2.71501
rclavicle -1.16985e-013 2.78299e-014
rhumerus -36.2696 -14.8178 -78.3418
rradius 32.4975
rwrist 8.27647
rhand -14.8307 7.0792
rfingers 7.12502
rthumb 11.328 -22.5949
lclavicle -1.16985e-013 2.78299e-014
lhumerus -31.4987 10.7513 76.9576
lradius 35.0332
lwrist -0.303091
lhand -19.1524 27.9487
lfingers 7.12502
lthumb 7.15803 57.8077
rfemur -7.30473 -9.21212 29.2593
rtibia 28.2267
rfoot -4.75991 -2.75791
rtoes 7.48593
lfemur -13.063 -1.97648 -14.7168
ltibia 61.2019
lfoot 3.56052 -8.42496
ltoes -3.15847
213
root -9.84482 18.2524 8.32241 181.167 -33.4467 174.014
lowerback 11.1781 -1.10785 -3.32413
upperback 0.868308 -1.86957 1.94008
thorax -5.19083 -0.864635 4.20578
lowerneck 3.7507 -13.8124 -13.8117
upperneck 31.1136 -34.251 15.672
head 15.9494 -17.1482 2.87575
rclavicle -1.72943e-014 -4.77083e-015
rhumerus -36.8569 -14.733 -78.2802
rradius 32.5055
rwrist 7.94101
rhand -14.8223 7.34296
rfingers 7.12502
rthumb 11.3361 -22.3307
lclavicle -1.72943e-014 -4.77083e-015
lhumerus -31.3577 10.9587 76.8885
lradius 35.0741
lwrist -0.553182
lhand -19.1315 27.9851
lfingers 7.12502
lthumb 7.17823 57.8434
rfemur -7.62943 -9.48365 29.2353
rtibia 28.2278
rfoot -4.62426 -3.33932
rtoes 7.92115
lfemur -12.2724 -1.36594 -14.7888
ltibia 61.093
lfoot 4.28805 -9.21524
ltoes -3.16646
214
root -9.81048 18.2631 8.38703 181.278 -34.2618 173.923
lowerback 11.0069 -1.23425 -3.26862
upperback 0.836531 -2.02192 1.97668
thorax -5.11457 -0.941164 4.22939
lowerneck 3.79307 -13.7887 -13.8557
upperneck 31.1245 -34.1264 15.6524
head 15.9221 -17.0982 2.9116
rclavicle 1.32192e-013 2.22639e-014
rhumerus -37.2697 -14.7213 -78.1553
rradius 32.3883
rwrist 7.842
rhand -14.6635 7.45735
rfingers 7.12502
rthumb 11.4893 -22.2078
lclavicle 1.32192e-013 2.22639e-014
lhumerus -31.1703 11.265 76.8654
lradius 35.0862
lwrist -0.954129
lhand -18.2567 27.9333
lfingers 7.12502
lthumb 8.02261 57.761
rfemur -8.00154 -9.78931 29.2058
rtibia 28.2025
rfoot -4.41238 -3.69736
rtoes 8.09449
lfemur -11.4883 -0.751818 -14.8585
ltibia 60.8979
lfoot 5.26285 -10.0868
ltoes -2.79389
